<svg width="282" height="85" viewBox="0 0 282 85" fill="none" xmlns="http://www.w3.org/2000/svg">
<path d="M282 72.9256C282 79.2299 276.884 84.3405 270.574 84.3405H11.4263C5.11571 84.3405 0 79.2299 0 72.9256V24.5264C0 18.2221 5.11571 13.1115 11.4263 13.1115H215.459C216.396 13.1115 217.33 12.9963 218.239 12.7684L267.793 0.348764C275.007 -1.45925 282 3.99046 282 11.4206V72.9256Z" fill="#FF8423"/>
<path d="M35.2393 49.7284H39.2456L37.2746 43.5215L35.2393 49.7284ZM35.4428 39.9151H39.1706L44.7624 55.6891H41.1845L40.1669 52.4465H34.3502L33.2575 55.6891H29.8082L35.4428 39.9151Z" fill="white"/>
<path d="M49.165 50.8199C49.265 51.5405 49.4614 52.0791 49.7542 52.4358C50.2898 53.0851 51.2075 53.4097 52.5072 53.4097C53.2856 53.4097 53.9176 53.3241 54.4033 53.1528C55.3245 52.8247 55.7851 52.2147 55.7851 51.3229C55.7851 50.8021 55.5566 50.399 55.0995 50.1136C54.6425 49.8354 53.9248 49.5892 52.9464 49.3752L51.2753 49.0007C49.6328 48.6297 48.4973 48.2266 47.8689 47.7914C46.8048 47.0637 46.2728 45.9258 46.2728 44.3776C46.2728 42.965 46.7869 41.7914 47.8153 40.8568C48.8437 39.9222 50.3541 39.4549 52.3465 39.4549C54.0105 39.4549 55.4281 39.8973 56.5992 40.7819C57.7776 41.6595 58.3953 42.9365 58.4524 44.6131H55.2817C55.2245 43.6642 54.8103 42.99 54.039 42.5905C53.5249 42.3265 52.8857 42.1945 52.1216 42.1945C51.2718 42.1945 50.5933 42.3657 50.0863 42.7082C49.5792 43.0506 49.3257 43.5286 49.3257 44.1422C49.3257 44.7058 49.5757 45.1267 50.0756 45.405C50.3969 45.5905 51.0825 45.8081 52.1323 46.0578L54.8532 46.7105C56.0458 46.9959 56.9456 47.3776 57.5526 47.8556C58.4953 48.5976 58.9666 49.6713 58.9666 51.0767C58.9666 52.5179 58.4132 53.7164 57.3062 54.6724C56.2065 55.6213 54.6496 56.0957 52.6358 56.0957C50.579 56.0957 48.9615 55.6284 47.7832 54.6938C46.6048 53.7521 46.0157 52.4608 46.0157 50.8199H49.165Z" fill="white"/>
<path d="M61.4625 39.9151H64.7083V46.4109L70.8035 39.9151H75.0669L68.5968 46.4109L75.399 55.6891H71.157L66.283 48.7973L64.7083 50.4133V55.6891H61.4625V39.9151Z" fill="white"/>
<path d="M83.3688 39.9365H94.563V42.7082H86.6467V46.336H93.5775V49.0756H86.6467V55.6891H83.3688V39.9365Z" fill="white"/>
<path d="M103.765 53.3348C105.072 53.3348 106.107 52.8532 106.871 51.8901C107.642 50.9269 108.028 49.5571 108.028 47.7807C108.028 46.0114 107.642 44.6452 106.871 43.682C106.107 42.7118 105.072 42.2266 103.765 42.2266C102.458 42.2266 101.415 42.7082 100.637 43.6713C99.8583 44.6345 99.4691 46.0042 99.4691 47.7807C99.4691 49.5571 99.8583 50.9269 100.637 51.8901C101.415 52.8532 102.458 53.3348 103.765 53.3348ZM111.327 47.7807C111.327 50.613 110.531 52.7818 108.939 54.2872C107.746 55.5143 106.021 56.1278 103.765 56.1278C101.508 56.1278 99.7833 55.5143 98.5907 54.2872C96.9911 52.7818 96.1912 50.613 96.1912 47.7807C96.1912 44.8913 96.9911 42.7225 98.5907 41.2742C99.7833 40.0471 101.508 39.4335 103.765 39.4335C106.021 39.4335 107.746 40.0471 108.939 41.2742C110.531 42.7225 111.327 44.8913 111.327 47.7807Z" fill="white"/>
<path d="M117.155 42.6547V46.8925H120.893C121.636 46.8925 122.193 46.8069 122.564 46.6356C123.221 46.336 123.55 45.7438 123.55 44.8592C123.55 43.9032 123.232 43.2611 122.597 42.9329C122.24 42.7474 121.704 42.6547 120.99 42.6547H117.155ZM121.675 39.9151C122.782 39.9365 123.632 40.0721 124.225 40.3218C124.825 40.5715 125.332 40.9389 125.746 41.424C126.089 41.8235 126.36 42.2659 126.56 42.751C126.76 43.2361 126.86 43.789 126.86 44.4097C126.86 45.1588 126.671 45.8972 126.292 46.6249C125.914 47.3455 125.289 47.8556 124.418 48.1552C125.146 48.4478 125.66 48.8651 125.96 49.4073C126.267 49.9424 126.421 50.7628 126.421 51.8687V52.9281C126.421 53.6487 126.449 54.1374 126.507 54.3942C126.592 54.8009 126.792 55.1005 127.106 55.2931V55.6891H123.475C123.375 55.3395 123.304 55.0577 123.261 54.8437C123.175 54.4013 123.129 53.9483 123.121 53.4846L123.1 52.0185C123.086 51.0125 122.9 50.3419 122.543 50.0066C122.193 49.6713 121.533 49.5036 120.561 49.5036H117.155V55.6891H113.93V39.9151H121.675Z" fill="white"/>
<path d="M139.318 49.7284H143.325L141.354 43.5215L139.318 49.7284ZM139.522 39.9151H143.25L148.841 55.6891H145.263L144.246 52.4465H138.429L137.336 55.6891H133.887L139.522 39.9151Z" fill="white"/>
<path d="M150.802 39.9151H154.262L160.55 50.9269V39.9151H163.624V55.6891H160.325L153.876 44.4846V55.6891H150.802V39.9151Z" fill="white"/>
<path d="M179.799 53.3348C181.106 53.3348 182.142 52.8532 182.906 51.8901C183.677 50.9269 184.063 49.5571 184.063 47.7807C184.063 46.0114 183.677 44.6452 182.906 43.682C182.142 42.7118 181.106 42.2266 179.799 42.2266C178.492 42.2266 177.45 42.7082 176.671 43.6713C175.893 44.6345 175.504 46.0042 175.504 47.7807C175.504 49.5571 175.893 50.9269 176.671 51.8901C177.45 52.8532 178.492 53.3348 179.799 53.3348ZM187.362 47.7807C187.362 50.613 186.566 52.7818 184.973 54.2872C183.781 55.5143 182.056 56.1278 179.799 56.1278C177.543 56.1278 175.818 55.5143 174.625 54.2872C173.026 52.7818 172.226 50.613 172.226 47.7807C172.226 44.8913 173.026 42.7225 174.625 41.2742C175.818 40.0471 177.543 39.4335 179.799 39.4335C182.056 39.4335 183.781 40.0471 184.973 41.2742C186.566 42.7225 187.362 44.8913 187.362 47.7807Z" fill="white"/>
<path d="M189.89 39.9365H201.084V42.7082H193.168V46.336H200.099V49.0756H193.168V55.6891H189.89V39.9365Z" fill="white"/>
<path d="M203.302 39.9365H214.496V42.7082H206.58V46.336H213.51V49.0756H206.58V55.6891H203.302V39.9365Z" fill="white"/>
<path d="M228.389 42.7082H220.034V46.0578H227.704V48.7973H220.034V52.8532H228.775V55.6891H216.81V39.9151H228.389V42.7082Z" fill="white"/>
<path d="M234.645 42.6547V46.8925H238.384C239.127 46.8925 239.684 46.8069 240.055 46.6356C240.712 46.336 241.04 45.7438 241.04 44.8592C241.04 43.9032 240.723 43.2611 240.087 42.9329C239.73 42.7474 239.194 42.6547 238.48 42.6547H234.645ZM239.166 39.9151C240.273 39.9365 241.123 40.0721 241.715 40.3218C242.315 40.5715 242.822 40.9389 243.236 41.424C243.579 41.8235 243.851 42.2659 244.051 42.751C244.251 43.2361 244.35 43.789 244.35 44.4097C244.35 45.1588 244.161 45.8972 243.783 46.6249C243.404 47.3455 242.779 47.8556 241.908 48.1552C242.637 48.4478 243.151 48.8651 243.451 49.4073C243.758 49.9424 243.911 50.7628 243.911 51.8687V52.9281C243.911 53.6487 243.94 54.1374 243.997 54.3942C244.083 54.8009 244.283 55.1005 244.597 55.2931V55.6891H240.965C240.865 55.3395 240.794 55.0577 240.751 54.8437C240.666 54.4013 240.619 53.9483 240.612 53.4846L240.591 52.0185C240.576 51.0125 240.391 50.3419 240.033 50.0066C239.684 49.6713 239.023 49.5036 238.052 49.5036H234.645V55.6891H231.421V39.9151H239.166Z" fill="white"/>
<path d="M247.939 39.9686H251.292V43.971L250.424 51.3336H248.828L247.939 43.971V39.9686ZM248.014 52.5964H251.206V55.6891H248.014V52.5964Z" fill="white"/>
</svg>
