<svg width="63" height="47" viewBox="0 0 63 47" fill="none" xmlns="http://www.w3.org/2000/svg">
<path d="M14.3189 18.7435C13.6186 18.7435 12.9465 18.8502 12.2775 18.9476C12.4942 18.2192 12.7172 17.4782 13.0752 16.8126C13.4333 15.8456 13.9923 15.0073 14.5482 14.1628C15.013 13.2492 15.8327 12.6307 16.4357 11.8489C17.067 11.0891 17.9276 10.5836 18.6091 9.95257C19.278 9.29325 20.1543 8.96359 20.8515 8.49893C21.5801 8.08136 22.2145 7.61984 22.8929 7.40007L24.5857 6.70307L26.0744 6.08457L24.5512 0L22.6762 0.452103C22.0764 0.602804 21.3446 0.778623 20.5123 0.988977C19.6612 1.14596 18.7535 1.57608 17.7423 1.96854C16.7435 2.41436 15.5878 2.71576 14.5137 3.4316C13.4333 4.11603 12.1864 4.68744 11.0872 5.60421C10.0225 6.54923 8.73801 7.36867 7.78953 8.57114C6.75311 9.69512 5.72926 10.8756 4.93468 12.2194C4.01447 13.5003 3.38948 14.9069 2.72994 16.2977C2.13322 17.6886 1.6527 19.1108 1.26012 20.4922C0.515781 23.2614 0.182872 25.8924 0.0541048 28.1435C-0.0526774 30.3977 0.0101357 32.2721 0.142043 33.6284C0.189153 34.2689 0.277091 34.8905 0.339904 35.3206L0.41842 35.8481L0.500077 35.8293C1.05868 38.4377 2.34459 40.8348 4.20907 42.7432C6.07355 44.6517 8.4404 45.9934 11.0358 46.6133C13.6313 47.2331 16.3492 47.1058 18.8753 46.246C21.4013 45.3861 23.6322 43.829 25.31 41.7546C26.9877 39.6802 28.0437 37.1734 28.3558 34.5241C28.6679 31.8748 28.2233 29.1913 27.0735 26.7841C25.9237 24.3768 24.1157 22.3442 21.8586 20.9213C19.6014 19.4983 16.9874 18.7433 14.3189 18.7435ZM48.8661 18.7435C48.1657 18.7435 47.4936 18.8502 46.8247 18.9476C47.0414 18.2192 47.2644 17.4782 47.6224 16.8126C47.9804 15.8456 48.5395 15.0073 49.0954 14.1628C49.5602 13.2492 50.3799 12.6307 50.9829 11.8489C51.6142 11.0891 52.4747 10.5836 53.1562 9.95257C53.8252 9.29325 54.7014 8.96359 55.3987 8.49893C56.1273 8.08136 56.7617 7.61984 57.4401 7.40007L59.1329 6.70307L60.6216 6.08457L59.0984 0L57.2234 0.452103C56.6235 0.602804 55.8918 0.778623 55.0595 0.988977C54.2084 1.14596 53.3007 1.57608 52.2894 1.96854C51.2938 2.4175 50.1349 2.71576 49.0608 3.43474C47.9804 4.11917 46.7336 4.69058 45.6344 5.60735C44.5697 6.55237 43.2852 7.37181 42.3367 8.57114C41.3003 9.69512 40.2764 10.8756 39.4818 12.2194C38.5616 13.5003 37.9366 14.9069 37.2771 16.2977C36.6804 17.6886 36.1999 19.1108 35.8073 20.4922C35.063 23.2614 34.73 25.8924 34.6013 28.1435C34.4945 30.3977 34.5573 32.2721 34.6892 33.6284C34.7363 34.2689 34.8243 34.8905 34.8871 35.3206L34.9656 35.8481L35.0472 35.8293C35.6058 38.4377 36.8918 40.8348 38.7562 42.7432C40.6207 44.6517 42.9876 45.9934 45.583 46.6133C48.1784 47.2331 50.8964 47.1058 53.4224 46.246C55.9485 45.3861 58.1794 43.829 59.8572 41.7546C61.5349 39.6802 62.5909 37.1734 62.903 34.5241C63.2151 31.8748 62.7705 29.1913 61.6207 26.7841C60.4709 24.3768 58.6629 22.3442 56.4057 20.9213C54.1486 19.4983 51.5346 18.7433 48.8661 18.7435Z" fill="#61FF00"/>
</svg>
