<svg width="14" height="14" viewBox="0 0 14 14" fill="none" xmlns="http://www.w3.org/2000/svg">
<path d="M3.41111 5.12042C4.215 5.12042 4.63998 4.69543 4.95004 4.3848C5.22882 4.10603 5.36593 3.98257 5.68509 3.98257C6.00426 3.98257 6.14137 4.10603 6.42014 4.3848C6.7302 4.69543 7.15519 5.12042 7.95964 5.12042C8.76467 5.12042 9.19022 4.69543 9.50142 4.3848C9.78076 4.10603 9.91787 3.98257 10.2382 3.98257C10.5585 3.98257 10.6956 4.10603 10.9749 4.3848C11.2856 4.69543 11.7111 5.12042 12.5161 5.12042V3.98257C12.1958 3.98257 12.0587 3.85912 11.7794 3.58034C11.4688 3.26971 11.0432 2.84473 10.2382 2.84473C9.43315 2.84473 9.00817 3.26971 8.69697 3.57977C8.41763 3.85912 8.28108 3.98257 7.95964 3.98257C7.63991 3.98257 7.50337 3.85912 7.2246 3.58034C6.91453 3.26971 6.48955 2.84473 5.68509 2.84473C4.88064 2.84473 4.45565 3.26971 4.14559 3.58034C3.86682 3.85912 3.73027 3.98257 3.41111 3.98257C3.09194 3.98257 2.9554 3.85912 2.67663 3.58034C2.36657 3.26971 1.94158 2.84473 1.1377 2.84473V3.98257C1.45686 3.98257 1.5934 4.10603 1.87217 4.3848C2.18224 4.69543 2.60722 5.12042 3.41111 5.12042ZM3.41111 7.96503C4.215 7.96503 4.63998 7.54004 4.95004 7.22941C5.22882 6.95064 5.36593 6.82718 5.68509 6.82718C6.00426 6.82718 6.14137 6.95064 6.42014 7.22941C6.7302 7.54004 7.15519 7.96503 7.95964 7.96503C8.76467 7.96503 9.19022 7.54004 9.50142 7.22941C9.78076 6.95064 9.91787 6.82718 10.2382 6.82718C10.5585 6.82718 10.6956 6.95064 10.9749 7.22941C11.2856 7.54004 11.7111 7.96503 12.5161 7.96503V6.82718C12.1958 6.82718 12.0587 6.70373 11.7794 6.42495C11.4688 6.11432 11.0432 5.68934 10.2382 5.68934C9.43315 5.68934 9.00817 6.11432 8.69697 6.42439C8.41763 6.70373 8.28108 6.82718 7.95964 6.82718C7.63991 6.82718 7.50337 6.70373 7.2246 6.42495C6.91453 6.11432 6.48955 5.68934 5.68509 5.68934C4.88064 5.68934 4.45565 6.11432 4.14559 6.42495C3.86682 6.70373 3.73027 6.82718 3.41111 6.82718C3.09194 6.82718 2.9554 6.70373 2.67663 6.42495C2.36657 6.11432 1.94158 5.68934 1.1377 5.68934V6.82718C1.45686 6.82718 1.5934 6.95064 1.87217 7.22941C2.18224 7.54004 2.60722 7.96503 3.41111 7.96503ZM3.41111 10.8096C4.215 10.8096 4.63998 10.3847 4.95004 10.074C5.22882 9.79525 5.36593 9.67179 5.68509 9.67179C6.00426 9.67179 6.14137 9.79525 6.42014 10.074C6.7302 10.3847 7.15519 10.8096 7.95964 10.8096C8.76467 10.8096 9.19022 10.3847 9.50142 10.074C9.78076 9.79525 9.91787 9.67179 10.2382 9.67179C10.5585 9.67179 10.6956 9.79525 10.9749 10.074C11.2856 10.3847 11.7111 10.8096 12.5161 10.8096V9.67179C12.1958 9.67179 12.0587 9.54834 11.7794 9.26957C11.4688 8.95893 11.0432 8.53395 10.2382 8.53395C9.43315 8.53395 9.00817 8.95893 8.69697 9.269C8.41763 9.54834 8.28108 9.67179 7.95964 9.67179C7.63991 9.67179 7.50337 9.54834 7.2246 9.26957C6.91453 8.95893 6.48955 8.53395 5.68509 8.53395C4.88064 8.53395 4.45565 8.95893 4.14559 9.26957C3.86682 9.54834 3.73027 9.67179 3.41111 9.67179C3.09194 9.67179 2.9554 9.54834 2.67663 9.26957C2.36657 8.95893 1.94158 8.53395 1.1377 8.53395V9.67179C1.45686 9.67179 1.5934 9.79525 1.87217 10.074C2.18224 10.3847 2.60722 10.8096 3.41111 10.8096Z" fill="black"/>
</svg>
