<svg width="31" height="31" viewBox="0 0 31 31" fill="none" xmlns="http://www.w3.org/2000/svg">
<g clip-path="url(#clip0_2311_436)">
<path d="M15.5 31C23.9025 31 31 23.9025 31 15.5C31 7.09745 23.9025 0 15.5 0C7.09745 0 0 7.09745 0 15.5C0 23.9025 7.09745 31 15.5 31ZM15.5 3.1C22.2223 3.1 27.9 8.77765 27.9 15.5C27.9 22.2223 22.2223 27.9 15.5 27.9C8.77765 27.9 3.1 22.2223 3.1 15.5C3.1 8.77765 8.77765 3.1 15.5 3.1Z" fill="#11072D"/>
<path d="M15.5 23.25C16.8966 23.25 19.5005 22.9896 21.2458 21.2474L19.0541 19.0526C18.3675 19.7392 17.0376 20.15 15.5 20.15C12.9797 20.15 10.85 18.0203 10.85 15.5C10.85 12.9797 12.9797 10.85 15.5 10.85C17.0391 10.85 18.3691 11.2607 19.0541 11.9458L21.2458 9.75415C19.5021 8.0104 16.8966 7.75 15.5 7.75C11.2266 7.75 7.75 11.2266 7.75 15.5C7.75 19.7733 11.2266 23.25 15.5 23.25Z" fill="#11072D"/>
</g>
<defs>
<clipPath id="clip0_2311_436">
<rect width="31" height="31" fill="white"/>
</clipPath>
</defs>
</svg>
