<svg width="27" height="27" viewBox="0 0 27 27" fill="none" xmlns="http://www.w3.org/2000/svg">
<path d="M21.4544 5.5455C20.4131 4.49594 19.174 3.66338 17.8087 3.09602C16.4434 2.52867 14.9791 2.2378 13.5007 2.24025C12.0219 2.23794 10.5573 2.52886 9.19169 3.0962C7.82607 3.66354 6.58649 4.49602 5.54466 5.5455C1.15829 9.93075 1.15829 17.0689 5.54466 21.4552C6.58651 22.505 7.82625 23.3377 9.1921 23.905C10.558 24.4724 12.0228 24.7631 13.5018 24.7605C14.9802 24.7631 16.4444 24.4724 17.8097 23.9052C19.1749 23.3381 20.4142 22.5057 21.4555 21.4564C25.8419 17.0711 25.8419 9.933 21.4544 5.5455ZM13.7032 4.50037H13.2993C13.3679 4.49925 13.4332 4.49025 13.5018 4.49025C13.5704 4.49025 13.6345 4.49925 13.7032 4.50037ZM20.5229 19.1254H17.9995L16.5843 21.9559C15.597 22.3206 14.5532 22.5084 13.5007 22.5105C12.4462 22.5086 11.4004 22.3204 10.4114 21.9548L8.99954 19.1366H6.48516C5.55753 17.9834 4.9302 16.6182 4.65929 15.1631L6.74954 12.3754L5.38154 9.63825C5.81805 8.70966 6.41136 7.86327 7.13541 7.13625C8.1488 6.11932 9.39092 5.35977 10.7579 4.92112L13.4995 6.75037L16.2423 4.92225C17.6089 5.36121 18.8509 6.12028 19.8648 7.13625C20.5881 7.8624 21.181 8.70761 21.6175 9.63487L20.2495 12.3754L22.3398 15.1631C22.0701 16.6135 21.446 17.9746 20.5229 19.1254Z" fill="#61FF00"/>
<path d="M9.5625 12.375L11.25 16.875H15.75L17.4375 12.375L13.5 9.5625L9.5625 12.375Z" fill="#61FF00"/>
</svg>
