<svg width="35" height="35" viewBox="0 0 24 24" fill="none" xmlns="http://www.w3.org/2000/svg">
<path d="M12 0C5.3832 0 0 5.3832 0 12C0 18.6168 5.3832 24 12 24C18.6168 24 24 18.6168 24 12C24 5.3832 18.6168 0 12 0ZM21.5172 10.8H18.2004C18.0524 8.17349 17.3176 5.61356 16.05 3.3084C17.519 3.99486 18.7906 5.04168 19.7465 6.35149C20.7024 7.66131 21.3115 9.19158 21.5172 10.8ZM12.636 2.4324C13.878 4.0692 15.5484 6.9684 15.7884 10.8H8.436C8.6028 7.6848 9.6288 4.7664 11.3772 2.4312C11.5836 2.4192 11.79 2.4 12 2.4C12.2148 2.4 12.4248 2.4192 12.636 2.4324ZM8.0256 3.2724C6.8448 5.5416 6.1632 8.1144 6.036 10.8H2.4828C2.69012 9.1774 3.30796 7.63452 4.27787 6.3173C5.24778 5.00008 6.5377 3.95207 8.0256 3.2724ZM2.4828 13.2H6.0516C6.2148 16.0548 6.8496 18.5736 7.9188 20.676C6.45743 19.9871 5.19327 18.941 4.24315 17.6343C3.29303 16.3277 2.6876 14.8026 2.4828 13.2ZM11.34 21.5676C9.6588 19.53 8.6664 16.6752 8.4492 13.2H15.7848C15.5352 16.5276 14.4444 19.4352 12.6612 21.5664C12.4428 21.5808 12.2244 21.6 12 21.6C11.7768 21.6 11.5596 21.5808 11.34 21.5676ZM16.1532 20.6412C17.2992 18.4884 17.9988 15.96 18.1824 13.2H21.516C21.3135 14.7891 20.7168 16.3024 19.7801 17.602C18.8435 18.9017 17.5967 19.9464 16.1532 20.6412Z" fill="white"/>
</svg>
