<svg width="20" height="19" viewBox="0 0 20 19" fill="none" xmlns="http://www.w3.org/2000/svg">
<path d="M15.9203 6.27805C16.797 6.27805 17.5076 5.58599 17.5076 4.73229C17.5076 3.87858 16.797 3.18652 15.9203 3.18652C15.0437 3.18652 14.333 3.87858 14.333 4.73229C14.333 5.58599 15.0437 6.27805 15.9203 6.27805Z" fill="#11072D"/>
<path d="M15.8189 10.3044C15.3694 10.6542 15.0435 10.9075 14.33 10.9075C13.6172 10.9075 13.3088 10.6673 12.8426 10.3044C12.3034 9.88519 11.6334 9.36324 10.3633 9.36324C9.09392 9.36324 8.42474 9.88519 7.88639 10.3044C7.42019 10.6673 7.11335 10.9075 6.39978 10.9075C5.68779 10.9075 5.38017 10.6673 4.91476 10.3052C4.37641 9.88519 3.70803 9.36324 2.43945 9.36324V10.9075C3.15065 10.9075 3.45828 11.1476 3.92368 11.5097C4.46204 11.9297 5.13121 12.4517 6.39978 12.4517C7.66836 12.4517 8.33911 11.9297 8.87746 11.5097C9.34287 11.1468 9.6513 10.9075 10.3633 10.9075C11.0769 10.9075 11.4027 11.1607 11.8523 11.5105C12.3906 11.9297 13.0606 12.4517 14.33 12.4517C15.6001 12.4517 16.2701 11.9297 16.8092 11.5105C17.2754 11.1476 17.5838 10.9075 18.2966 10.9075V9.36324C17.0273 9.36324 16.3573 9.88519 15.8189 10.3044ZM14.33 14.768C13.6172 14.768 13.3088 14.5279 12.8426 14.165C12.3034 13.7457 11.6334 13.2238 10.3633 13.2238C9.09392 13.2238 8.42474 13.7457 7.88639 14.165C7.42019 14.5279 7.11335 14.768 6.39978 14.768C5.68779 14.768 5.38017 14.5279 4.91476 14.1658C4.37641 13.7457 3.70803 13.2238 2.43945 13.2238V14.768C3.15065 14.768 3.45828 15.0081 3.92368 15.3703C4.46204 15.7903 5.13121 16.3122 6.39978 16.3122C7.66836 16.3122 8.33911 15.7903 8.87746 15.3703C9.34287 15.0074 9.6513 14.768 10.3633 14.768C11.0769 14.768 11.4027 15.0213 11.8523 15.371C12.3906 15.7903 13.0606 16.3122 14.33 16.3122C15.6001 16.3122 16.2701 15.7903 16.8092 15.371C17.2754 15.0081 17.5838 14.768 18.2966 14.768V13.2238C17.0273 13.2238 16.3573 13.7457 15.8189 14.165C15.3694 14.5148 15.0435 14.768 14.33 14.768ZM9.57518 4.28199L11.2434 5.90651L9.61244 7.89083C9.8392 7.84759 10.085 7.81903 10.3633 7.81903C11.6334 7.81903 12.3034 8.34097 12.8426 8.76023C13.3088 9.12312 13.6172 9.36324 14.33 9.36324C15.0435 9.36324 15.3694 9.10999 15.8189 8.76023C15.9236 8.67915 16.0362 8.59268 16.1543 8.50852L14.4925 6.89481L14.4965 6.89095L10.1357 2.64435C10.0622 2.57259 9.97479 2.51565 9.8786 2.47681C9.78242 2.43796 9.67931 2.41797 9.57518 2.41797C9.47105 2.41797 9.36794 2.43796 9.27176 2.47681C9.17557 2.51565 9.0882 2.57259 9.01463 2.64435L5.8432 5.73279L6.9643 6.82455L9.57518 4.28199Z" fill="#11072D"/>
</svg>
