<svg width="38" height="37" viewBox="0 0 38 37" fill="none" xmlns="http://www.w3.org/2000/svg">
<path d="M15.5485 27.7497C18.3082 27.7491 20.9885 26.833 23.1624 25.1473L29.9974 31.9245L32.196 29.7446L25.361 22.9674C27.0619 20.8117 27.9864 18.1535 27.9871 15.4163C27.9871 8.61605 22.4068 3.08301 15.5485 3.08301C8.69013 3.08301 3.10986 8.61605 3.10986 15.4163C3.10986 22.2166 8.69013 27.7497 15.5485 27.7497ZM15.5485 6.16634C20.6934 6.16634 24.8774 10.315 24.8774 15.4163C24.8774 20.5177 20.6934 24.6663 15.5485 24.6663C10.4035 24.6663 6.21951 20.5177 6.21951 15.4163C6.21951 10.315 10.4035 6.16634 15.5485 6.16634Z" fill="#11072D"/>
<path d="M17.7436 13.2368C18.3329 13.8226 18.6579 14.5965 18.6579 15.4167H21.7675C21.7689 14.6064 21.6083 13.8039 21.295 13.0556C20.9817 12.3073 20.5219 11.6279 19.9422 11.0568C17.5882 8.72584 13.5067 8.72584 11.1543 11.0568L13.3497 13.2398C14.5314 12.0713 16.5682 12.0743 17.7436 13.2368Z" fill="#11072D"/>
</svg>
