<svg width="1477" height="307" viewBox="0 0 1477 307" fill="none" xmlns="http://www.w3.org/2000/svg">
<path d="M1477 265.054C1477 287.967 1450.21 306.542 1417.15 306.542H59.846C26.794 306.542 0 287.967 0 265.054V89.1431C0 66.2297 26.794 47.6548 59.846 47.6548H1128.49C1133.39 47.6548 1138.29 47.2359 1143.05 46.4077L1402.59 1.26761C1440.37 -5.30375 1477 14.5037 1477 41.5089V265.054Z" fill="#FF8423"/>
<path d="M184.569 180.742H205.552L195.229 158.182L184.569 180.742ZM185.635 145.075H205.16L234.447 202.406H215.708L210.377 190.621H179.912L174.189 202.406H156.123L185.635 145.075Z" fill="white"/>
<path d="M257.506 184.709C258.03 187.328 259.058 189.286 260.592 190.582C263.397 192.942 268.204 194.122 275.011 194.122C279.088 194.122 282.398 193.811 284.942 193.188C289.767 191.995 292.18 189.778 292.18 186.537C292.18 184.644 290.983 183.179 288.589 182.142C286.195 181.131 282.436 180.236 277.312 179.458L268.559 178.097C259.956 176.748 254.009 175.283 250.717 173.702C245.144 171.057 242.358 166.921 242.358 161.294C242.358 156.16 245.051 151.894 250.437 148.497C255.823 145.101 263.734 143.402 274.17 143.402C282.885 143.402 290.309 145.01 296.444 148.225C302.615 151.415 305.851 156.056 306.15 162.15H289.543C289.243 158.701 287.074 156.251 283.034 154.799C280.341 153.839 276.994 153.359 272.991 153.359C268.54 153.359 264.987 153.982 262.331 155.226C259.676 156.471 258.348 158.208 258.348 160.438C258.348 162.487 259.657 164.017 262.275 165.028C263.958 165.702 267.549 166.493 273.048 167.401L287.298 169.773C293.545 170.81 298.258 172.198 301.437 173.935C306.374 176.632 308.843 180.534 308.843 185.643C308.843 190.88 305.944 195.237 300.147 198.711C294.386 202.16 286.232 203.884 275.684 203.884C264.912 203.884 256.44 202.186 250.269 198.789C244.097 195.366 241.011 190.673 241.011 184.709H257.506Z" fill="white"/>
<path d="M321.916 145.075H338.916V168.684L370.84 145.075H393.17L359.282 168.684L394.909 202.406H372.691L347.163 177.358L338.916 183.231V202.406H321.916V145.075Z" fill="white"/>
<path d="M436.652 145.152H495.282V155.226H453.82V168.412H490.12V178.369H453.82V202.406H436.652V145.152Z" fill="white"/>
<path d="M543.477 193.849C550.322 193.849 555.745 192.099 559.747 188.599C563.787 185.098 565.807 180.119 565.807 173.663C565.807 167.232 563.787 162.266 559.747 158.766C555.745 155.239 550.322 153.476 543.477 153.476C536.632 153.476 531.171 155.226 527.094 158.727C523.017 162.228 520.978 167.206 520.978 173.663C520.978 180.119 523.017 185.098 527.094 188.599C531.171 192.099 536.632 193.849 543.477 193.849ZM583.087 173.663C583.087 183.957 578.917 191.84 570.576 197.311C564.329 201.771 555.296 204.001 543.477 204.001C531.657 204.001 522.624 201.771 516.378 197.311C507.999 191.84 503.81 183.957 503.81 173.663C503.81 163.161 507.999 155.278 516.378 150.014C522.624 145.554 531.657 143.324 543.477 143.324C555.296 143.324 564.329 145.554 570.576 150.014C578.917 155.278 583.087 163.161 583.087 173.663Z" fill="white"/>
<path d="M613.609 155.032V170.434H633.19C637.08 170.434 639.997 170.123 641.942 169.501C645.383 168.412 647.104 166.26 647.104 163.044C647.104 159.57 645.439 157.236 642.11 156.043C640.24 155.369 637.435 155.032 633.695 155.032H613.609ZM637.285 145.075C643.083 145.152 647.534 145.645 650.639 146.553C653.78 147.46 656.436 148.796 658.606 150.559C660.401 152.011 661.822 153.619 662.87 155.382C663.917 157.145 664.441 159.155 664.441 161.411C664.441 164.133 663.449 166.817 661.467 169.462C659.484 172.081 656.212 173.935 651.648 175.024C655.464 176.087 658.157 177.604 659.728 179.575C661.336 181.52 662.14 184.502 662.14 188.521V192.371C662.14 194.99 662.29 196.767 662.589 197.7C663.038 199.178 664.085 200.267 665.731 200.967V202.406H646.711C646.188 201.136 645.813 200.112 645.589 199.334C645.14 197.726 644.897 196.079 644.86 194.394L644.747 189.065C644.673 185.409 643.7 182.972 641.83 181.753C639.997 180.534 636.537 179.925 631.45 179.925H613.609V202.406H596.721V145.075H637.285Z" fill="white"/>
<path d="M729.691 180.742H750.675L740.351 158.182L729.691 180.742ZM730.757 145.075H750.282L779.569 202.406H760.83L755.5 190.621H725.035L719.312 202.406H701.246L730.757 145.075Z" fill="white"/>
<path d="M789.837 145.075H807.959L840.893 185.098V145.075H856.995V202.406H839.715L805.939 161.683V202.406H789.837V145.075Z" fill="white"/>
<path d="M941.715 193.849C948.56 193.849 953.983 192.099 957.985 188.599C962.025 185.098 964.045 180.119 964.045 173.663C964.045 167.232 962.025 162.266 957.985 158.766C953.983 155.239 948.56 153.476 941.715 153.476C934.87 153.476 929.409 155.226 925.332 158.727C921.255 162.228 919.216 167.206 919.216 173.663C919.216 180.119 921.255 185.098 925.332 188.599C929.409 192.099 934.87 193.849 941.715 193.849ZM981.325 173.663C981.325 183.957 977.155 191.84 968.814 197.311C962.567 201.771 953.534 204.001 941.715 204.001C929.895 204.001 920.862 201.771 914.616 197.311C906.237 191.84 902.048 183.957 902.048 173.663C902.048 163.161 906.237 155.278 914.616 150.014C920.862 145.554 929.895 143.324 941.715 143.324C953.534 143.324 962.567 145.554 968.814 150.014C977.155 155.278 981.325 163.161 981.325 173.663Z" fill="white"/>
<path d="M994.566 145.152H1053.2V155.226H1011.73V168.412H1048.03V178.369H1011.73V202.406H994.566V145.152Z" fill="white"/>
<path d="M1064.81 145.152H1123.44V155.226H1081.98V168.412H1118.28V178.369H1081.98V202.406H1064.81V145.152Z" fill="white"/>
<path d="M1196.21 155.226H1152.45V167.401H1192.62V177.358H1152.45V192.099H1198.23V202.406H1135.56V145.075H1196.21V155.226Z" fill="white"/>
<path d="M1228.98 155.032V170.434H1248.56C1252.45 170.434 1255.36 170.123 1257.31 169.501C1260.75 168.412 1262.47 166.26 1262.47 163.044C1262.47 159.57 1260.81 157.236 1257.48 156.043C1255.61 155.369 1252.8 155.032 1249.06 155.032H1228.98ZM1252.65 145.075C1258.45 145.152 1262.9 145.645 1266.01 146.553C1269.15 147.46 1271.8 148.796 1273.97 150.559C1275.77 152.011 1277.19 153.619 1278.24 155.382C1279.28 157.145 1279.81 159.155 1279.81 161.411C1279.81 164.133 1278.82 166.817 1276.83 169.462C1274.85 172.081 1271.58 173.935 1267.02 175.024C1270.83 176.087 1273.52 177.604 1275.09 179.575C1276.7 181.52 1277.51 184.502 1277.51 188.521V192.371C1277.51 194.99 1277.66 196.767 1277.96 197.7C1278.4 199.178 1279.45 200.267 1281.1 200.967V202.406H1262.08C1261.55 201.136 1261.18 200.112 1260.96 199.334C1260.51 197.726 1260.26 196.079 1260.23 194.394L1260.11 189.065C1260.04 185.409 1259.07 182.972 1257.2 181.753C1255.36 180.534 1251.9 179.925 1246.82 179.925H1228.98V202.406H1212.09V145.075H1252.65Z" fill="white"/>
<path d="M1298.6 145.269H1316.16V159.816L1311.62 186.576H1303.26L1298.6 159.816V145.269ZM1299 191.166H1315.71V202.406H1299V191.166Z" fill="white"/>
<rect x="92" y="68" width="1309" height="201" fill="#FF8423"/>
<path d="M139.766 139.906H154.766L131.188 209H117.547L94.2031 139.906H109.625L124.625 192.359L139.766 139.906ZM177.781 151.906V170.469H194.141C197.391 170.469 199.828 170.094 201.453 169.344C204.328 168.031 205.766 165.438 205.766 161.562C205.766 157.375 204.375 154.562 201.594 153.125C200.031 152.312 197.688 151.906 194.562 151.906H177.781ZM197.562 139.906C202.406 140 206.125 140.594 208.719 141.688C211.344 142.781 213.562 144.391 215.375 146.516C216.875 148.266 218.062 150.203 218.938 152.328C219.812 154.453 220.25 156.875 220.25 159.594C220.25 162.875 219.422 166.109 217.766 169.297C216.109 172.453 213.375 174.688 209.562 176C212.75 177.281 215 179.109 216.312 181.484C217.656 183.828 218.328 187.422 218.328 192.266V196.906C218.328 200.062 218.453 202.203 218.703 203.328C219.078 205.109 219.953 206.422 221.328 207.266V209H205.438C205 207.469 204.688 206.234 204.5 205.297C204.125 203.359 203.922 201.375 203.891 199.344L203.797 192.922C203.734 188.516 202.922 185.578 201.359 184.109C199.828 182.641 196.938 181.906 192.688 181.906H177.781V209H163.672V139.906H197.562ZM251.609 182.891H269.141L260.516 155.703L251.609 182.891ZM252.5 139.906H268.812L293.281 209H277.625L273.172 194.797H247.719L242.938 209H227.844L252.5 139.906ZM320.984 182.891H338.516L329.891 155.703L320.984 182.891ZM321.875 139.906H338.188L362.656 209H347L342.547 194.797H317.094L312.312 209H297.219L321.875 139.906ZM417.922 161.469C416.828 156.75 414.156 153.453 409.906 151.578C407.531 150.547 404.891 150.031 401.984 150.031C396.422 150.031 391.844 152.141 388.25 156.359C384.688 160.547 382.906 166.859 382.906 175.297C382.906 183.797 384.844 189.812 388.719 193.344C392.594 196.875 397 198.641 401.938 198.641C406.781 198.641 410.75 197.25 413.844 194.469C416.938 191.656 418.844 187.984 419.562 183.453H403.578V171.922H432.359V209H422.797L421.344 200.375C418.562 203.656 416.062 205.969 413.844 207.312C410.031 209.656 405.344 210.828 399.781 210.828C390.625 210.828 383.125 207.656 377.281 201.312C371.188 194.938 368.141 186.219 368.141 175.156C368.141 163.969 371.219 155 377.375 148.25C383.531 141.5 391.672 138.125 401.797 138.125C410.578 138.125 417.625 140.359 422.938 144.828C428.281 149.266 431.344 154.812 432.125 161.469H417.922ZM524 152.141H487.438V166.812H521V178.812H487.438V196.578H525.688V209H473.328V139.906H524V152.141ZM588.031 152.141H551.469V166.812H585.031V178.812H551.469V196.578H589.719V209H537.359V139.906H588.031V152.141ZM600.734 139.906H615.875L643.391 188.141V139.906H656.844V209H642.406L614.188 159.922V209H600.734V139.906ZM727.625 198.688C733.344 198.688 737.875 196.578 741.219 192.359C744.594 188.141 746.281 182.141 746.281 174.359C746.281 166.609 744.594 160.625 741.219 156.406C737.875 152.156 733.344 150.031 727.625 150.031C721.906 150.031 717.344 152.141 713.938 156.359C710.531 160.578 708.828 166.578 708.828 174.359C708.828 182.141 710.531 188.141 713.938 192.359C717.344 196.578 721.906 198.688 727.625 198.688ZM760.719 174.359C760.719 186.766 757.234 196.266 750.266 202.859C745.047 208.234 737.5 210.922 727.625 210.922C717.75 210.922 710.203 208.234 704.984 202.859C697.984 196.266 694.484 186.766 694.484 174.359C694.484 161.703 697.984 152.203 704.984 145.859C710.203 140.484 717.75 137.797 727.625 137.797C737.5 137.797 745.047 140.484 750.266 145.859C757.234 152.203 760.719 161.703 760.719 174.359ZM771.781 140H820.766V152.141H786.125V168.031H816.453V180.031H786.125V209H771.781V140ZM830.469 140H879.453V152.141H844.812V168.031H875.141V180.031H844.812V209H830.469V140ZM940.25 152.141H903.688V166.812H937.25V178.812H903.688V196.578H941.938V209H889.578V139.906H940.25V152.141ZM967.625 151.906V170.469H983.984C987.234 170.469 989.672 170.094 991.297 169.344C994.172 168.031 995.609 165.438 995.609 161.562C995.609 157.375 994.219 154.562 991.438 153.125C989.875 152.312 987.531 151.906 984.406 151.906H967.625ZM987.406 139.906C992.25 140 995.969 140.594 998.562 141.688C1001.19 142.781 1003.41 144.391 1005.22 146.516C1006.72 148.266 1007.91 150.203 1008.78 152.328C1009.66 154.453 1010.09 156.875 1010.09 159.594C1010.09 162.875 1009.27 166.109 1007.61 169.297C1005.95 172.453 1003.22 174.688 999.406 176C1002.59 177.281 1004.84 179.109 1006.16 181.484C1007.5 183.828 1008.17 187.422 1008.17 192.266V196.906C1008.17 200.062 1008.3 202.203 1008.55 203.328C1008.92 205.109 1009.8 206.422 1011.17 207.266V209H995.281C994.844 207.469 994.531 206.234 994.344 205.297C993.969 203.359 993.766 201.375 993.734 199.344L993.641 192.922C993.578 188.516 992.766 185.578 991.203 184.109C989.672 182.641 986.781 181.906 982.531 181.906H967.625V209H953.516V139.906H987.406ZM1072.77 139.906V152.141H1052.09V209H1037.56V152.141H1016.8V139.906H1072.77ZM1132.34 152.141H1095.78V166.812H1129.34V178.812H1095.78V196.578H1134.03V209H1081.67V139.906H1132.34V152.141ZM1187.33 182.891H1204.86L1196.23 155.703L1187.33 182.891ZM1188.22 139.906H1204.53L1229 209H1213.34L1208.89 194.797H1183.44L1178.66 209H1163.56L1188.22 139.906ZM1256.7 182.891H1274.23L1265.61 155.703L1256.7 182.891ZM1257.59 139.906H1273.91L1298.38 209H1282.72L1278.27 194.797H1252.81L1248.03 209H1232.94L1257.59 139.906ZM1306.95 139.906H1322.09L1349.61 188.141V139.906H1363.06V209H1348.62L1320.41 159.922V209H1306.95V139.906ZM1379.8 140.141H1394.47V157.672L1390.67 189.922H1383.69L1379.8 157.672V140.141ZM1380.12 195.453H1394.09V209H1380.12V195.453Z" fill="white"/>
</svg>
