<svg width="18" height="17" viewBox="0 0 18 17" fill="none" xmlns="http://www.w3.org/2000/svg">
<path d="M9.65269 4.21842C10.4363 4.21842 11.0715 3.59982 11.0715 2.83675C11.0715 2.07367 10.4363 1.45508 9.65269 1.45508C8.8691 1.45508 8.23389 2.07367 8.23389 2.83675C8.23389 3.59982 8.8691 4.21842 9.65269 4.21842Z" fill="#11072D"/>
<path d="M10.3467 8.5494C10.5205 8.80363 10.7801 8.99637 11.0781 9.09309L12.9757 9.70931L13.4248 8.39949L11.5271 7.78327L10.3474 6.05964C10.2101 5.86008 10.0222 5.69849 9.80186 5.59056L8.78458 5.09523C8.48194 4.94789 8.13501 4.91136 7.80703 4.9923L5.54191 5.54289C5.3431 5.59113 5.15736 5.68069 4.99744 5.80542C4.83751 5.93015 4.7072 6.0871 4.61544 6.2655L3.34277 8.74491L4.61189 9.3632L5.88455 6.8838L7.46155 6.4997L6.18179 12.2654L3.57546 14.0111L4.37921 15.1496L6.98625 13.4032C7.28491 13.2029 7.49205 12.9023 7.56796 12.5569L7.93472 10.9072L9.72028 12.2115L10.3765 15.4066L11.7676 15.1351L11.1114 11.9386C11.0425 11.6057 10.8501 11.3091 10.5708 11.1055L9.03074 9.98081L9.48972 7.29692L10.3467 8.5494Z" fill="#11072D"/>
</svg>
