<svg width="27" height="27" viewBox="0 0 27 27" fill="none" xmlns="http://www.w3.org/2000/svg">
<path d="M6.7455 10.125C8.33512 10.125 9.1755 9.28463 9.78863 8.67038C10.3399 8.11912 10.611 7.875 11.2421 7.875C11.8733 7.875 12.1444 8.11912 12.6956 8.67038C13.3088 9.28463 14.1491 10.125 15.7399 10.125C17.3317 10.125 18.1733 9.28463 18.7886 8.67038C19.341 8.11912 19.6121 7.875 20.2455 7.875C20.8789 7.875 21.15 8.11912 21.7024 8.67038C22.3166 9.28463 23.1581 10.125 24.75 10.125V7.875C24.1166 7.875 23.8455 7.63088 23.2931 7.07963C22.6789 6.46538 21.8374 5.625 20.2455 5.625C18.6536 5.625 17.8132 6.46537 17.1979 7.0785C16.6455 7.63088 16.3755 7.875 15.7399 7.875C15.1076 7.875 14.8376 7.63088 14.2864 7.07963C13.6733 6.46538 12.8329 5.625 11.2421 5.625C9.65137 5.625 8.811 6.46538 8.19788 7.07963C7.64663 7.63088 7.37662 7.875 6.7455 7.875C6.11437 7.875 5.84437 7.63088 5.29312 7.07963C4.68 6.46538 3.83963 5.625 2.25 5.625V7.875C2.88112 7.875 3.15112 8.11912 3.70237 8.67038C4.3155 9.28463 5.15587 10.125 6.7455 10.125ZM6.7455 15.75C8.33512 15.75 9.1755 14.9096 9.78863 14.2954C10.3399 13.7441 10.611 13.5 11.2421 13.5C11.8733 13.5 12.1444 13.7441 12.6956 14.2954C13.3088 14.9096 14.1491 15.75 15.7399 15.75C17.3317 15.75 18.1733 14.9096 18.7886 14.2954C19.341 13.7441 19.6121 13.5 20.2455 13.5C20.8789 13.5 21.15 13.7441 21.7024 14.2954C22.3166 14.9096 23.1581 15.75 24.75 15.75V13.5C24.1166 13.5 23.8455 13.2559 23.2931 12.7046C22.6789 12.0904 21.8374 11.25 20.2455 11.25C18.6536 11.25 17.8132 12.0904 17.1979 12.7035C16.6455 13.2559 16.3755 13.5 15.7399 13.5C15.1076 13.5 14.8376 13.2559 14.2864 12.7046C13.6733 12.0904 12.8329 11.25 11.2421 11.25C9.65137 11.25 8.811 12.0904 8.19788 12.7046C7.64663 13.2559 7.37662 13.5 6.7455 13.5C6.11437 13.5 5.84437 13.2559 5.29312 12.7046C4.68 12.0904 3.83963 11.25 2.25 11.25V13.5C2.88112 13.5 3.15112 13.7441 3.70237 14.2954C4.3155 14.9096 5.15587 15.75 6.7455 15.75ZM6.7455 21.375C8.33512 21.375 9.1755 20.5346 9.78863 19.9204C10.3399 19.3691 10.611 19.125 11.2421 19.125C11.8733 19.125 12.1444 19.3691 12.6956 19.9204C13.3088 20.5346 14.1491 21.375 15.7399 21.375C17.3317 21.375 18.1733 20.5346 18.7886 19.9204C19.341 19.3691 19.6121 19.125 20.2455 19.125C20.8789 19.125 21.15 19.3691 21.7024 19.9204C22.3166 20.5346 23.1581 21.375 24.75 21.375V19.125C24.1166 19.125 23.8455 18.8809 23.2931 18.3296C22.6789 17.7154 21.8374 16.875 20.2455 16.875C18.6536 16.875 17.8132 17.7154 17.1979 18.3285C16.6455 18.8809 16.3755 19.125 15.7399 19.125C15.1076 19.125 14.8376 18.8809 14.2864 18.3296C13.6733 17.7154 12.8329 16.875 11.2421 16.875C9.65137 16.875 8.811 17.7154 8.19788 18.3296C7.64663 18.8809 7.37662 19.125 6.7455 19.125C6.11437 19.125 5.84437 18.8809 5.29312 18.3296C4.68 17.7154 3.83963 16.875 2.25 16.875V19.125C2.88112 19.125 3.15112 19.3691 3.70237 19.9204C4.3155 20.5346 5.15587 21.375 6.7455 21.375Z" fill="#61FF00"/>
</svg>
